<svg xmlns="http://www.w3.org/2000/svg" version="1.1" viewBox="-5.0 -10.0 110.0 135.0">
 <path d="m83.922 77.871c-1.3242 1.043-3.5508 2.0742-6.2617 3.0312-6.1523 2.1758-14.855 4.0391-20.848 5.1836-4.5742 0.87109-9.2656 0.87109-13.84 0-5.9922-1.1445-14.695-3.0078-20.848-5.1836-2.7109-0.95703-4.9375-1.9883-6.2617-3.0312-0.19922-0.16016-0.29688-0.41797-0.25391-0.66797 0 0 1.4883-8.3828 1.4844-8.375 0.050781-0.77734 1.082-9.3008 22.418-16.074 0.33984-0.10938 0.71094 0.058594 0.85156 0.39062 0 0 2.8516 6.8164 9.5273 6.8125 6.6797 0.003907 9.5312-6.8125 9.5312-6.8125 0.14062-0.33203 0.51172-0.5 0.85156-0.39062 21.328 6.7734 22.367 15.289 22.414 16.066l1.4883 8.3828c0.042969 0.25-0.054687 0.50781-0.25391 0.66797zm-13.688 3.8125c1.4531-0.37891 2.875-0.77734 4.2266-1.1914 3.5156-1.0781 6.5391-2.2461 8.2695-3.4688l-1.418-8.0039c-0.007812-0.035156-0.011719-0.070312-0.011719-0.10547 0 0-0.3125-7.9766-20.875-14.652-0.9375 1.7812-4.25 7.0898-10.535 7.0859-6.2812 0.003906-9.5938-5.3047-10.527-7.0859-20.566 6.6758-20.879 14.652-20.879 14.652 0 0.035157-0.003906 0.070313-0.011719 0.10547 0 0-1.418 8.0039-1.418 8.0039 1.7344 1.2227 4.7539 2.3906 8.2695 3.4688 1.6758 0.51172 3.4609 1.0039 5.2773 1.4648l0.007813-9.4141c0-0.38281 0.3125-0.69531 0.69531-0.69531 0.38281 0 0.69531 0.3125 0.69531 0.69531l-0.007812 9.7305v0.03125c3.9805 0.97266 8.0078 1.7969 11.242 2.4141 4.3984 0.83984 8.918 0.83984 13.316 0 3.5156-0.67188 7.9766-1.5898 12.293-2.6758l0.007812-9.5c0-0.38281 0.3125-0.69531 0.69531-0.69531s0.69531 0.3125 0.69531 0.69531zm-20.344-67.82c9.4961 0 17.207 7.707 17.207 17.203s-7.7109 17.203-17.207 17.203c-9.4922 0-17.203-7.707-17.203-17.203s7.7109-17.203 17.203-17.203zm0 1.3906c-8.7266 0-15.812 7.0859-15.812 15.812 0 8.7266 7.0859 15.812 15.812 15.812 8.7305 0 15.816-7.0859 15.816-15.812 0-8.7266-7.0859-15.812-15.816-15.812z" fill-rule="evenodd"/>
<text x="0.0" y="117.5" font-size="5.0" font-weight="bold" font-family="Arbeit Regular, Helvetica, Arial-Unicode, Arial, Sans-serif" fill="#000000">Created by Rikeu Rosyana</text><text x="0.0" y="122.5" font-size="5.0" font-weight="bold" font-family="Arbeit Regular, Helvetica, Arial-Unicode, Arial, Sans-serif" fill="#000000">from Noun Project</text></svg>